{
  "accessors": [
    {
      "bufferView": 2,
      "componentType": 5126,
      "count": 28805,
      "max": [
        586.890380859375,
        137.91915893554688,
        21.812406539916992
      ],
      "min": [
        -356.8903503417969,
        -1.1920928955078125e-06,
        -95.55132293701172
      ],
      "type": "VEC3"
    },
    {
      "bufferView": 2,
      "byteOffset": 345660,
      "componentType": 5126,
      "count": 28805,
      "max": [
        0.9898631572723389,
        1.0,
        1.0
      ],
      "min": [
        -0.9898620843887329,
        -0.16879531741142273,
        -1.0
      ],
      "type": "VEC3"
    },
    {
      "bufferView": 3,
      "componentType": 5126,
      "count": 28805,
      "max": [
        0.6707592010498047,
        0.9898623824119568,
        0.5827332139015198,
        1.0
      ],
      "min": [
        -1.0,
        -0.9901736378669739,
        -0.5842041373252869,
        -1.0
      ],
      "type": "VEC4"
    },
    {
      "bufferView": 1,
      "componentType": 5126,
      "count": 28805,
      "max": [
        1.9297962188720703,
        1.5020418167114258
      ],
      "min": [
        -0.9297962784767151,
        -0.021609187126159668
      ],
      "type": "VEC2"
    },
    {
      "bufferView": 0,
      "componentType": 5125,
      "count": 169098,
      "type": "SCALAR"
    }
  ],
  "asset": {
    "extras": {
      "author": "Danylo Tyupa (https://sketchfab.com/danzl0)",
      "license": "CC-BY-4.0 (http://creativecommons.org/licenses/by/4.0/)",
      "source": "https://sketchfab.com/3d-models/mossy-stone-wall-238c2af61ece44d5869a766d13764bfa",
      "title": "Mossy Stone Wall"
    },
    "generator": "Sketchfab-14.72.0",
    "version": "2.0"
  },
  "bufferViews": [
    {
      "buffer": 0,
      "byteLength": 676392,
      "name": "floatBufferViews",
      "target": 34963
    },
    {
      "buffer": 0,
      "byteLength": 230440,
      "byteOffset": 676392,
      "byteStride": 8,
      "name": "floatBufferViews",
      "target": 34962
    },
    {
      "buffer": 0,
      "byteLength": 691320,
      "byteOffset": 906832,
      "byteStride": 12,
      "name": "floatBufferViews",
      "target": 34962
    },
    {
      "buffer": 0,
      "byteLength": 460880,
      "byteOffset": 1598152,
      "byteStride": 16,
      "name": "floatBufferViews",
      "target": 34962
    }
  ],
  "buffers": [
    {
      "byteLength": 2059032,
      "uri": "scene.bin"
    }
  ],
  "extensionsUsed": [
    "KHR_materials_specular"
  ],
  "images": [
    {
      "uri": "textures/lambert1_baseColor.png"
    },
    {
      "uri": "textures/lambert1_metallicRoughness.png"
    },
    {
      "uri": "textures/lambert1_normal.png"
    }
  ],
  "materials": [
    {
      "extensions": {
        "KHR_materials_specular": {
          "specularColorFactor": [
            1.0,
            1.0,
            1.0
          ],
          "specularFactor": 0.2943978659
        }
      },
      "name": "lambert1",
      "normalTexture": {
        "index": 2,
        "scale": 0.30268369401872686
      },
      "occlusionTexture": {
        "index": 1
      },
      "pbrMetallicRoughness": {
        "baseColorTexture": {
          "index": 0
        },
        "metallicFactor": 0.0,
        "metallicRoughnessTexture": {
          "index": 1
        }
      }
    }
  ],
  "meshes": [
    {
      "name": "polySurface16_lambert1_0",
      "primitives": [
        {
          "attributes": {
            "NORMAL": 1,
            "POSITION": 0,
            "TANGENT": 2,
            "TEXCOORD_0": 3
          },
          "indices": 4,
          "material": 0,
          "mode": 4
        }
      ]
    }
  ],
  "nodes": [
    {
      "children": [
        1
      ],
      "matrix": [
        1.0,
        0.0,
        0.0,
        0.0,
        0.0,
        2.220446049250313e-16,
        -1.0,
        0.0,
        0.0,
        1.0,
        2.220446049250313e-16,
        0.0,
        0.0,
        0.0,
        0.0,
        1.0
      ],
      "name": "Sketchfab_model"
    },
    {
      "children": [
        2
      ],
      "matrix": [
        1.0,
        0.0,
        0.0,
        0.0,
        0.0,
        0.0,
        1.0,
        0.0,
        0.0,
        -1.0,
        0.0,
        0.0,
        0.0,
        0.0,
        0.0,
        1.0
      ],
      "name": "97a070490bae4c168d69dded3a4e3ad9.fbx"
    },
    {
      "children": [
        3
      ],
      "name": "RootNode"
    },
    {
      "children": [
        4
      ],
      "name": "polySurface16"
    },
    {
      "mesh": 0,
      "name": "polySurface16_lambert1_0"
    }
  ],
  "samplers": [
    {
      "magFilter": 9729,
      "minFilter": 9987,
      "wrapS": 10497,
      "wrapT": 10497
    }
  ],
  "scene": 0,
  "scenes": [
    {
      "name": "Sketchfab_Scene",
      "nodes": [
        0
      ]
    }
  ],
  "textures": [
    {
      "sampler": 0,
      "source": 0
    },
    {
      "sampler": 0,
      "source": 1
    },
    {
      "sampler": 0,
      "source": 2
    }
  ]
}
