{
  "accessors": [
    {
      "bufferView": 2,
      "componentType": 5126,
      "count": 65532,
      "max": [
        97.83782958984375,
        27.49209976196289,
        15.860859870910645
      ],
      "min": [
        -19.103469848632813,
        10.166664123535156,
        -9.339999198913574
      ],
      "type": "VEC3"
    },
    {
      "bufferView": 2,
      "byteOffset": 786384,
      "componentType": 5126,
      "count": 65532,
      "max": [
        0.9999358654022217,
        0.999254047870636,
        0.9999904632568359
      ],
      "min": [
        -0.9998573660850525,
        -0.9999992847442627,
        -0.9999821186065674
      ],
      "type": "VEC3"
    },
    {
      "bufferView": 1,
      "componentType": 5126,
      "count": 65532,
      "max": [
        0.9952449798583984,
        1.0
      ],
      "min": [
        4.199999966658652e-05,
        0.0
      ],
      "type": "VEC2"
    },
    {
      "bufferView": 0,
      "componentType": 5125,
      "count": 332910,
      "type": "SCALAR"
    },
    {
      "bufferView": 2,
      "byteOffset": 1572768,
      "componentType": 5126,
      "count": 65532,
      "max": [
        92.55561828613281,
        24.064830780029297,
        12.66603946685791
      ],
      "min": [
        -19.004615783691406,
        10.415989875793457,
        -7.124444007873535
      ],
      "type": "VEC3"
    },
    {
      "bufferView": 2,
      "byteOffset": 2359152,
      "componentType": 5126,
      "count": 65532,
      "max": [
        0.9999759197235107,
        0.9991770386695862,
        0.9997297525405884
      ],
      "min": [
        -0.9986984133720398,
        -0.999997079372406,
        -0.999995768070221
      ],
      "type": "VEC3"
    },
    {
      "bufferView": 1,
      "byteOffset": 524256,
      "componentType": 5126,
      "count": 65532,
      "max": [
        0.9618549942970276,
        0.9995070099830627
      ],
      "min": [
        0.007904999889433384,
        0.02071000076830387
      ],
      "type": "VEC2"
    },
    {
      "bufferView": 0,
      "byteOffset": 1331640,
      "componentType": 5125,
      "count": 334236,
      "type": "SCALAR"
    },
    {
      "bufferView": 2,
      "byteOffset": 3145536,
      "componentType": 5126,
      "count": 65532,
      "max": [
        88.83259582519531,
        23.974781036376953,
        16.926362991333008
      ],
      "min": [
        -13.71883773803711,
        9.965973854064941,
        -7.177505016326904
      ],
      "type": "VEC3"
    },
    {
      "bufferView": 2,
      "byteOffset": 3931920,
      "componentType": 5126,
      "count": 65532,
      "max": [
        0.9999977946281433,
        0.9957118034362793,
        0.9985490441322327
      ],
      "min": [
        -0.9998152852058411,
        -0.999997079372406,
        -0.999954104423523
      ],
      "type": "VEC3"
    },
    {
      "bufferView": 1,
      "byteOffset": 1048512,
      "componentType": 5126,
      "count": 65532,
      "max": [
        0.8819320201873779,
        0.9992730021476746
      ],
      "min": [
        0.009298999793827534,
        0.00041599999531172216
      ],
      "type": "VEC2"
    },
    {
      "bufferView": 0,
      "byteOffset": 2668584,
      "componentType": 5125,
      "count": 317862,
      "type": "SCALAR"
    },
    {
      "bufferView": 2,
      "byteOffset": 4718304,
      "componentType": 5126,
      "count": 65532,
      "max": [
        83.51197814941406,
        28.787521362304688,
        15.074834823608398
      ],
      "min": [
        -20.209861755371094,
        10.358665466308594,
        -10.545035362243652
      ],
      "type": "VEC3"
    },
    {
      "bufferView": 2,
      "byteOffset": 5504688,
      "componentType": 5126,
      "count": 65532,
      "max": [
        0.9999849200248718,
        0.9998653531074524,
        0.9997057318687439
      ],
      "min": [
        -0.9998815059661865,
        -0.9999831318855286,
        -0.999992847442627
      ],
      "type": "VEC3"
    },
    {
      "bufferView": 1,
      "byteOffset": 1572768,
      "componentType": 5126,
      "count": 65532,
      "max": [
        0.9955869913101196,
        0.999871015548706
      ],
      "min": [
        8.600000001024455e-05,
        0.0
      ],
      "type": "VEC2"
    },
    {
      "bufferView": 0,
      "byteOffset": 3940032,
      "componentType": 5125,
      "count": 296478,
      "type": "SCALAR"
    },
    {
      "bufferView": 2,
      "byteOffset": 6291072,
      "componentType": 5126,
      "count": 63123,
      "max": [
        97.32829284667969,
        28.787521362304688,
        17.20302963256836
      ],
      "min": [
        -19.153728485107422,
        9.965973854064941,
        -10.821849822998047
      ],
      "type": "VEC3"
    },
    {
      "bufferView": 2,
      "byteOffset": 7048548,
      "componentType": 5126,
      "count": 63123,
      "max": [
        0.999968945980072,
        0.9999309778213501,
        0.9997435212135315
      ],
      "min": [
        -0.9999447464942932,
        -0.9999959468841553,
        -0.9999727010726929
      ],
      "type": "VEC3"
    },
    {
      "bufferView": 1,
      "byteOffset": 2097024,
      "componentType": 5126,
      "count": 63123,
      "max": [
        0.9953939914703369,
        1.0
      ],
      "min": [
        0.0024949999060481787,
        0.0009469999931752682
      ],
      "type": "VEC2"
    },
    {
      "bufferView": 0,
      "byteOffset": 5125944,
      "componentType": 5125,
      "count": 218514,
      "type": "SCALAR"
    }
  ],
  "asset": {
    "extras": {
      "author": "Tomáš Musílek (https://sketchfab.com/parleur)",
      "license": "CC-BY-4.0 (http://creativecommons.org/licenses/by/4.0/)",
      "source": "https://sketchfab.com/3d-models/ruined-sandstone-wall-ref-6b4a8f7d11de414dbad5f32c8cf69339",
      "title": "Ruined Sandstone  Wall Ref"
    },
    "generator": "Sketchfab-12.68.0",
    "version": "2.0"
  },
  "bufferViews": [
    {
      "buffer": 0,
      "byteLength": 6000000,
      "name": "floatBufferViews",
      "target": 34963
    },
    {
      "buffer": 0,
      "byteLength": 2602008,
      "byteOffset": 6000000,
      "byteStride": 8,
      "name": "floatBufferViews",
      "target": 34962
    },
    {
      "buffer": 0,
      "byteLength": 7806024,
      "byteOffset": 8602008,
      "byteStride": 12,
      "name": "floatBufferViews",
      "target": 34962
    }
  ],
  "buffers": [
    {
      "byteLength": 16408032,
      "uri": "scene.bin"
    }
  ],
  "extensionsUsed": [
    "KHR_materials_unlit"
  ],
  "images": [
    {
      "uri": "textures/AdrspachZameckaZedVzadu_S500000_baseColor.jpeg"
    }
  ],
  "materials": [
    {
      "doubleSided": true,
      "extensions": {
        "KHR_materials_unlit": {}
      },
      "name": "AdrspachZameckaZedVzadu_S500000",
      "pbrMetallicRoughness": {
        "baseColorTexture": {
          "index": 0
        },
        "metallicFactor": 0.0
      }
    }
  ],
  "meshes": [
    {
      "name": "Object_0",
      "primitives": [
        {
          "attributes": {
            "NORMAL": 1,
            "POSITION": 0,
            "TEXCOORD_0": 2
          },
          "indices": 3,
          "material": 0,
          "mode": 4
        }
      ]
    },
    {
      "name": "Object_1",
      "primitives": [
        {
          "attributes": {
            "NORMAL": 5,
            "POSITION": 4,
            "TEXCOORD_0": 6
          },
          "indices": 7,
          "material": 0,
          "mode": 4
        }
      ]
    },
    {
      "name": "Object_2",
      "primitives": [
        {
          "attributes": {
            "NORMAL": 9,
            "POSITION": 8,
            "TEXCOORD_0": 10
          },
          "indices": 11,
          "material": 0,
          "mode": 4
        }
      ]
    },
    {
      "name": "Object_3",
      "primitives": [
        {
          "attributes": {
            "NORMAL": 13,
            "POSITION": 12,
            "TEXCOORD_0": 14
          },
          "indices": 15,
          "material": 0,
          "mode": 4
        }
      ]
    },
    {
      "name": "Object_4",
      "primitives": [
        {
          "attributes": {
            "NORMAL": 17,
            "POSITION": 16,
            "TEXCOORD_0": 18
          },
          "indices": 19,
          "material": 0,
          "mode": 4
        }
      ]
    }
  ],
  "nodes": [
    {
      "children": [
        1
      ],
      "matrix": [
        0.9924544095993042,
        -0.12261422723531723,
        -4.1103615452468485e-17,
        0.0,
        -0.1024620458483696,
        -0.8293402194976806,
        -0.549268960952759,
        0.0,
        0.0673481896519661,
        0.5451243519783022,
        -0.8356456160545348,
        0.0,
        2.0633785724639893,
        22.28036117553711,
        -6.067541122436518,
        1.0
      ],
      "name": "Sketchfab_model"
    },
    {
      "children": [
        2,
        3,
        4,
        5,
        6
      ],
      "name": "AdrspachZameckaZedVzadu_S,500,000.obj.cleaner.materialmerger.gles"
    },
    {
      "mesh": 0,
      "name": "Object_2"
    },
    {
      "mesh": 1,
      "name": "Object_3"
    },
    {
      "mesh": 2,
      "name": "Object_4"
    },
    {
      "mesh": 3,
      "name": "Object_5"
    },
    {
      "mesh": 4,
      "name": "Object_6"
    }
  ],
  "samplers": [
    {
      "magFilter": 9729,
      "minFilter": 9987,
      "wrapS": 10497,
      "wrapT": 10497
    }
  ],
  "scene": 0,
  "scenes": [
    {
      "name": "Sketchfab_Scene",
      "nodes": [
        0
      ]
    }
  ],
  "textures": [
    {
      "sampler": 0,
      "source": 0
    }
  ]
}
