{
  "accessors": [
    {
      "bufferView": 2,
      "componentType": 5126,
      "count": 415,
      "max": [
        185.25794982910156,
        209.73594665527344,
        8.297450065612793
      ],
      "min": [
        -191.55233764648438,
        -212.92958068847656,
        -85.94873046875
      ],
      "type": "VEC3"
    },
    {
      "bufferView": 2,
      "byteOffset": 4980,
      "componentType": 5126,
      "count": 415,
      "max": [
        0.9951633810997009,
        0.9979286193847656,
        0.25596776604652405
      ],
      "min": [
        -0.997336208820343,
        -0.9955840110778809,
        -0.9999987483024597
      ],
      "type": "VEC3"
    },
    {
      "bufferView": 1,
      "componentType": 5126,
      "count": 415,
      "max": [
        1.0,
        0.0
      ],
      "min": [
        0.0,
        -1.039060115814209
      ],
      "type": "VEC2"
    },
    {
      "bufferView": 1,
      "byteOffset": 3320,
      "componentType": 5126,
      "count": 415,
      "max": [
        0.0,
        1.0
      ],
      "min": [
        0.0,
        0.9999999403953552
      ],
      "type": "VEC2"
    },
    {
      "bufferView": 0,
      "componentType": 5125,
      "count": 615,
      "type": "SCALAR"
    },
    {
      "bufferView": 2,
      "byteOffset": 9960,
      "componentType": 5126,
      "count": 424,
      "max": [
        180.1915740966797,
        207.91395568847656,
        8.297450065612793
      ],
      "min": [
        -187.2642822265625,
        -211.28799438476563,
        -56.258541107177734
      ],
      "type": "VEC3"
    },
    {
      "bufferView": 2,
      "byteOffset": 15048,
      "componentType": 5126,
      "count": 424,
      "max": [
        0.9951633810997009,
        0.9979286193847656,
        0.2559677064418793
      ],
      "min": [
        -0.9973361492156982,
        -0.9955841302871704,
        -0.9999988079071045
      ],
      "type": "VEC3"
    },
    {
      "bufferView": 1,
      "byteOffset": 6640,
      "componentType": 5126,
      "count": 424,
      "max": [
        1.0,
        0.0
      ],
      "min": [
        0.0,
        -1.039060115814209
      ],
      "type": "VEC2"
    },
    {
      "bufferView": 1,
      "byteOffset": 10032,
      "componentType": 5126,
      "count": 424,
      "max": [
        0.0,
        1.0
      ],
      "min": [
        0.0,
        0.9999999403953552
      ],
      "type": "VEC2"
    },
    {
      "bufferView": 0,
      "byteOffset": 2460,
      "componentType": 5125,
      "count": 630,
      "type": "SCALAR"
    },
    {
      "bufferView": 2,
      "byteOffset": 20136,
      "componentType": 5126,
      "count": 424,
      "max": [
        180.1915740966797,
        207.91395568847656,
        8.297450065612793
      ],
      "min": [
        -187.2642822265625,
        -211.28799438476563,
        -56.258541107177734
      ],
      "type": "VEC3"
    },
    {
      "bufferView": 2,
      "byteOffset": 25224,
      "componentType": 5126,
      "count": 424,
      "max": [
        0.9951633810997009,
        0.9979286193847656,
        0.2559677064418793
      ],
      "min": [
        -0.9973361492156982,
        -0.9955841302871704,
        -0.9999988079071045
      ],
      "type": "VEC3"
    },
    {
      "bufferView": 1,
      "byteOffset": 13424,
      "componentType": 5126,
      "count": 424,
      "max": [
        1.0,
        0.0
      ],
      "min": [
        0.0,
        -1.039060115814209
      ],
      "type": "VEC2"
    },
    {
      "bufferView": 1,
      "byteOffset": 16816,
      "componentType": 5126,
      "count": 424,
      "max": [
        0.0,
        1.0
      ],
      "min": [
        0.0,
        0.9999999403953552
      ],
      "type": "VEC2"
    },
    {
      "bufferView": 0,
      "byteOffset": 4980,
      "componentType": 5125,
      "count": 630,
      "type": "SCALAR"
    },
    {
      "bufferView": 2,
      "byteOffset": 30312,
      "componentType": 5126,
      "count": 415,
      "max": [
        185.25794982910156,
        209.73594665527344,
        8.297450065612793
      ],
      "min": [
        -191.55233764648438,
        -212.92958068847656,
        -85.94873046875
      ],
      "type": "VEC3"
    },
    {
      "bufferView": 2,
      "byteOffset": 35292,
      "componentType": 5126,
      "count": 415,
      "max": [
        0.9951633810997009,
        0.9979286193847656,
        0.25596776604652405
      ],
      "min": [
        -0.997336208820343,
        -0.9955840110778809,
        -0.9999987483024597
      ],
      "type": "VEC3"
    },
    {
      "bufferView": 1,
      "byteOffset": 20208,
      "componentType": 5126,
      "count": 415,
      "max": [
        1.0,
        0.0
      ],
      "min": [
        0.0,
        -1.039060115814209
      ],
      "type": "VEC2"
    },
    {
      "bufferView": 1,
      "byteOffset": 23528,
      "componentType": 5126,
      "count": 415,
      "max": [
        0.0,
        1.0
      ],
      "min": [
        0.0,
        0.9999999403953552
      ],
      "type": "VEC2"
    },
    {
      "bufferView": 0,
      "byteOffset": 7500,
      "componentType": 5125,
      "count": 615,
      "type": "SCALAR"
    },
    {
      "bufferView": 2,
      "byteOffset": 40272,
      "componentType": 5126,
      "count": 415,
      "max": [
        185.25794982910156,
        209.73594665527344,
        8.297450065612793
      ],
      "min": [
        -191.55233764648438,
        -212.92958068847656,
        -85.94873046875
      ],
      "type": "VEC3"
    },
    {
      "bufferView": 2,
      "byteOffset": 45252,
      "componentType": 5126,
      "count": 415,
      "max": [
        0.9951633810997009,
        0.9979286193847656,
        0.25596776604652405
      ],
      "min": [
        -0.997336208820343,
        -0.9955840110778809,
        -0.9999987483024597
      ],
      "type": "VEC3"
    },
    {
      "bufferView": 1,
      "byteOffset": 26848,
      "componentType": 5126,
      "count": 415,
      "max": [
        1.0,
        0.0
      ],
      "min": [
        0.0,
        -1.039060115814209
      ],
      "type": "VEC2"
    },
    {
      "bufferView": 1,
      "byteOffset": 30168,
      "componentType": 5126,
      "count": 415,
      "max": [
        0.0,
        1.0
      ],
      "min": [
        0.0,
        0.9999999403953552
      ],
      "type": "VEC2"
    },
    {
      "bufferView": 0,
      "byteOffset": 9960,
      "componentType": 5125,
      "count": 615,
      "type": "SCALAR"
    },
    {
      "bufferView": 2,
      "byteOffset": 50232,
      "componentType": 5126,
      "count": 424,
      "max": [
        180.1915740966797,
        207.91395568847656,
        8.297450065612793
      ],
      "min": [
        -187.2642822265625,
        -211.28799438476563,
        -56.258541107177734
      ],
      "type": "VEC3"
    },
    {
      "bufferView": 2,
      "byteOffset": 55320,
      "componentType": 5126,
      "count": 424,
      "max": [
        0.9951633810997009,
        0.9979286193847656,
        0.2559677064418793
      ],
      "min": [
        -0.9973361492156982,
        -0.9955841302871704,
        -0.9999988079071045
      ],
      "type": "VEC3"
    },
    {
      "bufferView": 1,
      "byteOffset": 33488,
      "componentType": 5126,
      "count": 424,
      "max": [
        1.0,
        0.0
      ],
      "min": [
        0.0,
        -1.039060115814209
      ],
      "type": "VEC2"
    },
    {
      "bufferView": 1,
      "byteOffset": 36880,
      "componentType": 5126,
      "count": 424,
      "max": [
        0.0,
        1.0
      ],
      "min": [
        0.0,
        0.9999999403953552
      ],
      "type": "VEC2"
    },
    {
      "bufferView": 0,
      "byteOffset": 12420,
      "componentType": 5125,
      "count": 630,
      "type": "SCALAR"
    },
    {
      "bufferView": 2,
      "byteOffset": 60408,
      "componentType": 5126,
      "count": 424,
      "max": [
        180.1915740966797,
        207.91395568847656,
        8.297450065612793
      ],
      "min": [
        -187.2642822265625,
        -211.28799438476563,
        -56.258541107177734
      ],
      "type": "VEC3"
    },
    {
      "bufferView": 2,
      "byteOffset": 65496,
      "componentType": 5126,
      "count": 424,
      "max": [
        0.9951633810997009,
        0.9979286193847656,
        0.2559677064418793
      ],
      "min": [
        -0.9973361492156982,
        -0.9955841302871704,
        -0.9999988079071045
      ],
      "type": "VEC3"
    },
    {
      "bufferView": 1,
      "byteOffset": 40272,
      "componentType": 5126,
      "count": 424,
      "max": [
        1.0,
        0.0
      ],
      "min": [
        0.0,
        -1.039060115814209
      ],
      "type": "VEC2"
    },
    {
      "bufferView": 1,
      "byteOffset": 43664,
      "componentType": 5126,
      "count": 424,
      "max": [
        0.0,
        1.0
      ],
      "min": [
        0.0,
        0.9999999403953552
      ],
      "type": "VEC2"
    },
    {
      "bufferView": 0,
      "byteOffset": 14940,
      "componentType": 5125,
      "count": 630,
      "type": "SCALAR"
    },
    {
      "bufferView": 2,
      "byteOffset": 70584,
      "componentType": 5126,
      "count": 415,
      "max": [
        185.25794982910156,
        209.73594665527344,
        8.297450065612793
      ],
      "min": [
        -191.55233764648438,
        -212.92958068847656,
        -85.94873046875
      ],
      "type": "VEC3"
    },
    {
      "bufferView": 2,
      "byteOffset": 75564,
      "componentType": 5126,
      "count": 415,
      "max": [
        0.9951633810997009,
        0.9979286193847656,
        0.25596776604652405
      ],
      "min": [
        -0.997336208820343,
        -0.9955840110778809,
        -0.9999987483024597
      ],
      "type": "VEC3"
    },
    {
      "bufferView": 1,
      "byteOffset": 47056,
      "componentType": 5126,
      "count": 415,
      "max": [
        1.0,
        0.0
      ],
      "min": [
        0.0,
        -1.039060115814209
      ],
      "type": "VEC2"
    },
    {
      "bufferView": 1,
      "byteOffset": 50376,
      "componentType": 5126,
      "count": 415,
      "max": [
        0.0,
        1.0
      ],
      "min": [
        0.0,
        0.9999999403953552
      ],
      "type": "VEC2"
    },
    {
      "bufferView": 0,
      "byteOffset": 17460,
      "componentType": 5125,
      "count": 615,
      "type": "SCALAR"
    }
  ],
  "asset": {
    "extras": {
      "author": "MichaelEGA (https://sketchfab.com/michael.evan.allison)",
      "license": "CC-BY-4.0 (http://creativecommons.org/licenses/by/4.0/)",
      "source": "https://sketchfab.com/3d-models/grass-patches-02-38e89666372f48bc9bad4ed90e98703f",
      "title": "Grass Patches 02"
    },
    "generator": "Sketchfab-14.77.0",
    "version": "2.0"
  },
  "bufferViews": [
    {
      "buffer": 0,
      "byteLength": 19920,
      "name": "floatBufferViews",
      "target": 34963
    },
    {
      "buffer": 0,
      "byteLength": 53696,
      "byteOffset": 19920,
      "byteStride": 8,
      "name": "floatBufferViews",
      "target": 34962
    },
    {
      "buffer": 0,
      "byteLength": 80544,
      "byteOffset": 73616,
      "byteStride": 12,
      "name": "floatBufferViews",
      "target": 34962
    }
  ],
  "buffers": [
    {
      "byteLength": 154160,
      "uri": "scene.bin"
    }
  ],
  "images": [
    {
      "uri": "textures/grass13_baseColor.png"
    },
    {
      "uri": "textures/grass12.001_baseColor.png"
    },
    {
      "uri": "textures/grass13.002_baseColor.png"
    },
    {
      "uri": "textures/grass12.003_baseColor.png"
    }
  ],
  "materials": [
    {
      "alphaMode": "BLEND",
      "doubleSided": true,
      "name": "grass13",
      "pbrMetallicRoughness": {
        "baseColorTexture": {
          "index": 0
        },
        "roughnessFactor": 0.9
      }
    },
    {
      "alphaMode": "BLEND",
      "doubleSided": true,
      "name": "grass12",
      "pbrMetallicRoughness": {
        "baseColorTexture": {
          "index": 0
        },
        "roughnessFactor": 0.9
      }
    },
    {
      "alphaMode": "BLEND",
      "doubleSided": true,
      "name": "grass12.001",
      "pbrMetallicRoughness": {
        "baseColorTexture": {
          "index": 1
        },
        "roughnessFactor": 0.9
      }
    },
    {
      "alphaMode": "BLEND",
      "doubleSided": true,
      "name": "grass13.001",
      "pbrMetallicRoughness": {
        "baseColorTexture": {
          "index": 1
        },
        "roughnessFactor": 0.9
      }
    },
    {
      "alphaMode": "BLEND",
      "doubleSided": true,
      "name": "grass13.002",
      "pbrMetallicRoughness": {
        "baseColorTexture": {
          "index": 2
        },
        "roughnessFactor": 0.9
      }
    },
    {
      "alphaMode": "BLEND",
      "doubleSided": true,
      "name": "grass12.002",
      "pbrMetallicRoughness": {
        "baseColorTexture": {
          "index": 2
        },
        "roughnessFactor": 0.9
      }
    },
    {
      "alphaMode": "BLEND",
      "doubleSided": true,
      "name": "grass12.003",
      "pbrMetallicRoughness": {
        "baseColorTexture": {
          "index": 3
        },
        "roughnessFactor": 0.9
      }
    },
    {
      "alphaMode": "BLEND",
      "doubleSided": true,
      "name": "grass13.003",
      "pbrMetallicRoughness": {
        "baseColorTexture": {
          "index": 3
        },
        "roughnessFactor": 0.9
      }
    }
  ],
  "meshes": [
    {
      "name": "Object_0",
      "primitives": [
        {
          "attributes": {
            "NORMAL": 1,
            "POSITION": 0,
            "TEXCOORD_0": 2,
            "TEXCOORD_1": 3
          },
          "indices": 4,
          "material": 0,
          "mode": 4
        }
      ]
    },
    {
      "name": "Object_1",
      "primitives": [
        {
          "attributes": {
            "NORMAL": 6,
            "POSITION": 5,
            "TEXCOORD_0": 7,
            "TEXCOORD_1": 8
          },
          "indices": 9,
          "material": 1,
          "mode": 4
        }
      ]
    },
    {
      "name": "Object_2",
      "primitives": [
        {
          "attributes": {
            "NORMAL": 11,
            "POSITION": 10,
            "TEXCOORD_0": 12,
            "TEXCOORD_1": 13
          },
          "indices": 14,
          "material": 2,
          "mode": 4
        }
      ]
    },
    {
      "name": "Object_3",
      "primitives": [
        {
          "attributes": {
            "NORMAL": 16,
            "POSITION": 15,
            "TEXCOORD_0": 17,
            "TEXCOORD_1": 18
          },
          "indices": 19,
          "material": 3,
          "mode": 4
        }
      ]
    },
    {
      "name": "Object_4",
      "primitives": [
        {
          "attributes": {
            "NORMAL": 21,
            "POSITION": 20,
            "TEXCOORD_0": 22,
            "TEXCOORD_1": 23
          },
          "indices": 24,
          "material": 4,
          "mode": 4
        }
      ]
    },
    {
      "name": "Object_5",
      "primitives": [
        {
          "attributes": {
            "NORMAL": 26,
            "POSITION": 25,
            "TEXCOORD_0": 27,
            "TEXCOORD_1": 28
          },
          "indices": 29,
          "material": 5,
          "mode": 4
        }
      ]
    },
    {
      "name": "Object_6",
      "primitives": [
        {
          "attributes": {
            "NORMAL": 31,
            "POSITION": 30,
            "TEXCOORD_0": 32,
            "TEXCOORD_1": 33
          },
          "indices": 34,
          "material": 6,
          "mode": 4
        }
      ]
    },
    {
      "name": "Object_7",
      "primitives": [
        {
          "attributes": {
            "NORMAL": 36,
            "POSITION": 35,
            "TEXCOORD_0": 37,
            "TEXCOORD_1": 38
          },
          "indices": 39,
          "material": 7,
          "mode": 4
        }
      ]
    }
  ],
  "nodes": [
    {
      "children": [
        1
      ],
      "matrix": [
        1.0,
        0.0,
        0.0,
        0.0,
        0.0,
        2.220446049250313e-16,
        -1.0,
        0.0,
        0.0,
        1.0,
        2.220446049250313e-16,
        0.0,
        0.0,
        0.0,
        0.0,
        1.0
      ],
      "name": "Sketchfab_model"
    },
    {
      "children": [
        2
      ],
      "name": "root"
    },
    {
      "children": [
        3,
        5,
        7,
        9,
        11,
        13,
        15,
        17
      ],
      "matrix": [
        1.0,
        0.0,
        0.0,
        0.0,
        0.0,
        2.220446049250313e-16,
        1.0,
        0.0,
        0.0,
        -1.0,
        2.220446049250313e-16,
        0.0,
        0.0,
        0.0,
        0.0,
        1.0
      ],
      "name": "GLTF_SceneRootNode"
    },
    {
      "children": [
        4
      ],
      "matrix": [
        0.009999999776482582,
        0.0,
        0.0,
        0.0,
        0.0,
        -1.6858739316326353e-09,
        0.00999999977648244,
        0.0,
        0.0,
        -0.00999999977648244,
        -1.6858739316326353e-09,
        0.0,
        -3.0,
        0.0,
        -3.0,
        1.0
      ],
      "name": "U3DMesh_0"
    },
    {
      "mesh": 0,
      "name": "Object_4"
    },
    {
      "children": [
        6
      ],
      "matrix": [
        0.009999999776482582,
        0.0,
        0.0,
        0.0,
        0.0,
        -1.6858739316326353e-09,
        0.00999999977648244,
        0.0,
        0.0,
        -0.00999999977648244,
        -1.6858739316326353e-09,
        0.0,
        3.0,
        0.0,
        -3.0,
        1.0
      ],
      "name": "U3DMesh.001_1"
    },
    {
      "mesh": 1,
      "name": "Object_6"
    },
    {
      "children": [
        8
      ],
      "matrix": [
        0.009999999776482582,
        0.0,
        0.0,
        0.0,
        0.0,
        -1.6858739316326353e-09,
        0.00999999977648244,
        0.0,
        0.0,
        -0.00999999977648244,
        -1.6858739316326353e-09,
        0.0,
        3.0,
        0.0,
        -8.0,
        1.0
      ],
      "name": "U3DMesh.002_2"
    },
    {
      "mesh": 2,
      "name": "Object_8"
    },
    {
      "children": [
        10
      ],
      "matrix": [
        0.009999999776482582,
        0.0,
        0.0,
        0.0,
        0.0,
        -1.6858739316326353e-09,
        0.00999999977648244,
        0.0,
        0.0,
        -0.00999999977648244,
        -1.6858739316326353e-09,
        0.0,
        -3.0,
        0.0,
        -8.0,
        1.0
      ],
      "name": "U3DMesh.003_3"
    },
    {
      "mesh": 3,
      "name": "Object_10"
    },
    {
      "children": [
        12
      ],
      "matrix": [
        0.009999999776482582,
        0.0,
        0.0,
        0.0,
        0.0,
        -1.6858739316326353e-09,
        0.00999999977648244,
        0.0,
        0.0,
        -0.00999999977648244,
        -1.6858739316326353e-09,
        0.0,
        -3.0,
        0.0,
        3.0,
        1.0
      ],
      "name": "U3DMesh.004_4"
    },
    {
      "mesh": 4,
      "name": "Object_12"
    },
    {
      "children": [
        14
      ],
      "matrix": [
        0.009999999776482582,
        0.0,
        0.0,
        0.0,
        0.0,
        -1.6858739316326353e-09,
        0.00999999977648244,
        0.0,
        0.0,
        -0.00999999977648244,
        -1.6858739316326353e-09,
        0.0,
        3.0,
        0.0,
        3.0,
        1.0
      ],
      "name": "U3DMesh.005_5"
    },
    {
      "mesh": 5,
      "name": "Object_14"
    },
    {
      "children": [
        16
      ],
      "matrix": [
        0.009999999776482582,
        0.0,
        0.0,
        0.0,
        0.0,
        -1.6858739316326353e-09,
        0.00999999977648244,
        0.0,
        0.0,
        -0.00999999977648244,
        -1.6858739316326353e-09,
        0.0,
        3.0,
        0.0,
        8.0,
        1.0
      ],
      "name": "U3DMesh.006_6"
    },
    {
      "mesh": 6,
      "name": "Object_16"
    },
    {
      "children": [
        18
      ],
      "matrix": [
        0.009999999776482582,
        0.0,
        0.0,
        0.0,
        0.0,
        -1.6858739316326353e-09,
        0.00999999977648244,
        0.0,
        0.0,
        -0.00999999977648244,
        -1.6858739316326353e-09,
        0.0,
        -3.0,
        0.0,
        8.0,
        1.0
      ],
      "name": "U3DMesh.007_7"
    },
    {
      "mesh": 7,
      "name": "Object_18"
    }
  ],
  "samplers": [
    {
      "magFilter": 9729,
      "minFilter": 9987,
      "wrapS": 10497,
      "wrapT": 10497
    }
  ],
  "scene": 0,
  "scenes": [
    {
      "name": "Sketchfab_Scene",
      "nodes": [
        0
      ]
    }
  ],
  "textures": [
    {
      "sampler": 0,
      "source": 0
    },
    {
      "sampler": 0,
      "source": 1
    },
    {
      "sampler": 0,
      "source": 2
    },
    {
      "sampler": 0,
      "source": 3
    }
  ]
}
