{
  "accessors": [
    {
      "bufferView": 2,
      "componentType": 5126,
      "count": 6293,
      "max": [
        -179.92999267578125,
        87.0999984741211,
        750.260009765625
      ],
      "min": [
        -309.5,
        -28.719999313354492,
        675.52001953125
      ],
      "type": "VEC3"
    },
    {
      "bufferView": 2,
      "byteOffset": 75516,
      "componentType": 5126,
      "count": 6293,
      "max": [
        0.9994485378265381,
        0.9997913837432861,
        0.9996508359909058
      ],
      "min": [
        -0.9997966885566711,
        -0.9999911189079285,
        -0.9998112320899963
      ],
      "type": "VEC3"
    },
    {
      "bufferView": 1,
      "componentType": 5126,
      "count": 6293,
      "max": [
        0.34077000617980957,
        0.9589400291442871
      ],
      "min": [
        0.012740000151097775,
        0.6309099793434143
      ],
      "type": "VEC2"
    },
    {
      "bufferView": 0,
      "componentType": 5125,
      "count": 30624,
      "type": "SCALAR"
    },
    {
      "bufferView": 2,
      "byteOffset": 151032,
      "componentType": 5126,
      "count": 65532,
      "max": [
        99.31999969482422,
        427.739990234375,
        999.969970703125
      ],
      "min": [
        -629.530029296875,
        -323.1300048828125,
        389.8699951171875
      ],
      "type": "VEC3"
    },
    {
      "bufferView": 2,
      "byteOffset": 937416,
      "componentType": 5126,
      "count": 65532,
      "max": [
        0.998845636844635,
        0.9998816847801208,
        0.9977813959121704
      ],
      "min": [
        -0.9978773593902588,
        -0.9999077916145325,
        -0.9982837438583374
      ],
      "type": "VEC3"
    },
    {
      "bufferView": 1,
      "byteOffset": 50344,
      "componentType": 5126,
      "count": 65532,
      "max": [
        0.32861998677253723,
        0.5708799958229065
      ],
      "min": [
        0.02239999920129776,
        0.019220000132918358
      ],
      "type": "VEC2"
    },
    {
      "bufferView": 0,
      "byteOffset": 122496,
      "componentType": 5125,
      "count": 134790,
      "type": "SCALAR"
    },
    {
      "bufferView": 2,
      "byteOffset": 1723800,
      "componentType": 5126,
      "count": 36420,
      "max": [
        99.9000015258789,
        352.4200134277344,
        927.9000244140625
      ],
      "min": [
        -528.4600219726563,
        -297.5899963378906,
        390.0299987792969
      ],
      "type": "VEC3"
    },
    {
      "bufferView": 2,
      "byteOffset": 2160840,
      "componentType": 5126,
      "count": 36420,
      "max": [
        0.9998886585235596,
        0.9999265074729919,
        0.997496485710144
      ],
      "min": [
        -0.9993478655815125,
        -0.999826192855835,
        -0.9990423917770386
      ],
      "type": "VEC3"
    },
    {
      "bufferView": 1,
      "byteOffset": 574600,
      "componentType": 5126,
      "count": 36420,
      "max": [
        0.32861998677253723,
        0.5203199982643127
      ],
      "min": [
        0.02239999920129776,
        0.019899999722838402
      ],
      "type": "VEC2"
    },
    {
      "bufferView": 0,
      "byteOffset": 661656,
      "componentType": 5125,
      "count": 73740,
      "type": "SCALAR"
    },
    {
      "bufferView": 2,
      "byteOffset": 2597880,
      "componentType": 5126,
      "count": 1284,
      "max": [
        19.93000030517578,
        40.9900016784668,
        728.1300048828125
      ],
      "min": [
        -261.7799987792969,
        -6.510000228881836,
        -0.0
      ],
      "type": "VEC3"
    },
    {
      "bufferView": 2,
      "byteOffset": 2613288,
      "componentType": 5126,
      "count": 1284,
      "max": [
        0.9990145564079285,
        0.9998710751533508,
        0.968085765838623
      ],
      "min": [
        -0.9995420575141907,
        -0.9997798204421997,
        -0.5614168047904968
      ],
      "type": "VEC3"
    },
    {
      "bufferView": 1,
      "byteOffset": 865960,
      "componentType": 5126,
      "count": 1284,
      "max": [
        0.9930099844932556,
        14.574080467224121
      ],
      "min": [
        0.36952999234199524,
        -2.851480007171631
      ],
      "type": "VEC2"
    },
    {
      "bufferView": 0,
      "byteOffset": 956616,
      "componentType": 5125,
      "count": 3864,
      "type": "SCALAR"
    }
  ],
  "asset": {
    "extras": {
      "author": "1-3D.com (https://sketchfab.com/1-3D.com)",
      "license": "CC-BY-SA-4.0 (http://creativecommons.org/licenses/by-sa/4.0/)",
      "source": "https://sketchfab.com/3d-models/bended-coconut-tree-e9f4782e76724cdbb8b2aef8b81c32e3",
      "title": "Bended coconut tree"
    },
    "generator": "Sketchfab-12.78.0",
    "version": "2.0"
  },
  "bufferViews": [
    {
      "buffer": 0,
      "byteLength": 972072,
      "name": "floatBufferViews",
      "target": 34963
    },
    {
      "buffer": 0,
      "byteLength": 876232,
      "byteOffset": 972072,
      "byteStride": 8,
      "name": "floatBufferViews",
      "target": 34962
    },
    {
      "buffer": 0,
      "byteLength": 2628696,
      "byteOffset": 1848304,
      "byteStride": 12,
      "name": "floatBufferViews",
      "target": 34962
    }
  ],
  "buffers": [
    {
      "byteLength": 4477000,
      "uri": "scene.bin"
    }
  ],
  "images": [
    {
      "uri": "textures/Coconut_baseColor.jpeg"
    }
  ],
  "materials": [
    {
      "doubleSided": true,
      "name": "Coconut",
      "pbrMetallicRoughness": {
        "baseColorTexture": {
          "index": 0
        },
        "metallicFactor": 0.0,
        "roughnessFactor": 0.9950494845873383
      }
    },
    {
      "doubleSided": true,
      "name": "Leaves",
      "pbrMetallicRoughness": {
        "baseColorTexture": {
          "index": 0
        },
        "metallicFactor": 0.0,
        "roughnessFactor": 0.997358980111775
      }
    },
    {
      "doubleSided": true,
      "name": "Trunk",
      "pbrMetallicRoughness": {
        "baseColorTexture": {
          "index": 0
        },
        "metallicFactor": 0.0
      }
    }
  ],
  "meshes": [
    {
      "name": "Object_0",
      "primitives": [
        {
          "attributes": {
            "NORMAL": 1,
            "POSITION": 0,
            "TEXCOORD_0": 2
          },
          "indices": 3,
          "material": 0,
          "mode": 4
        }
      ]
    },
    {
      "name": "Object_1",
      "primitives": [
        {
          "attributes": {
            "NORMAL": 5,
            "POSITION": 4,
            "TEXCOORD_0": 6
          },
          "indices": 7,
          "material": 1,
          "mode": 4
        }
      ]
    },
    {
      "name": "Object_2",
      "primitives": [
        {
          "attributes": {
            "NORMAL": 9,
            "POSITION": 8,
            "TEXCOORD_0": 10
          },
          "indices": 11,
          "material": 1,
          "mode": 4
        }
      ]
    },
    {
      "name": "Object_3",
      "primitives": [
        {
          "attributes": {
            "NORMAL": 13,
            "POSITION": 12,
            "TEXCOORD_0": 14
          },
          "indices": 15,
          "material": 2,
          "mode": 4
        }
      ]
    }
  ],
  "nodes": [
    {
      "children": [
        1
      ],
      "matrix": [
        1.0,
        0.0,
        0.0,
        0.0,
        0.0,
        2.220446049250313e-16,
        -1.0,
        0.0,
        0.0,
        1.0,
        2.220446049250313e-16,
        0.0,
        0.0,
        0.0,
        0.0,
        1.0
      ],
      "name": "Sketchfab_model"
    },
    {
      "children": [
        2,
        3,
        4,
        5
      ],
      "name": "coconutTreeBended.obj.cleaner.materialmerger.gles"
    },
    {
      "mesh": 0,
      "name": "Object_2"
    },
    {
      "mesh": 1,
      "name": "Object_3"
    },
    {
      "mesh": 2,
      "name": "Object_4"
    },
    {
      "mesh": 3,
      "name": "Object_5"
    }
  ],
  "samplers": [
    {
      "magFilter": 9729,
      "minFilter": 9987,
      "wrapS": 10497,
      "wrapT": 10497
    }
  ],
  "scene": 0,
  "scenes": [
    {
      "name": "Sketchfab_Scene",
      "nodes": [
        0
      ]
    }
  ],
  "textures": [
    {
      "sampler": 0,
      "source": 0
    }
  ]
}
