{
  "accessors": [
    {
      "bufferView": 2,
      "componentType": 5126,
      "count": 882,
      "max": [
        0.2110999971628189,
        0.0835999995470047,
        0.5489000082015991
      ],
      "min": [
        -0.2110999971628189,
        0.01810000091791153,
        0.4133000075817108
      ],
      "type": "VEC3"
    },
    {
      "bufferView": 2,
      "byteOffset": 10584,
      "componentType": 5126,
      "count": 882,
      "max": [
        1.0,
        0.9335113167762756,
        0.945125162601471
      ],
      "min": [
        -1.0,
        -0.9334778189659119,
        -0.945125162601471
      ],
      "type": "VEC3"
    },
    {
      "bufferView": 1,
      "componentType": 5126,
      "count": 882,
      "max": [
        0.0,
        1.4909000396728516
      ],
      "min": [
        -0.9269000291824341,
        -0.4876999855041504
      ],
      "type": "VEC2"
    },
    {
      "bufferView": 0,
      "componentType": 5125,
      "count": 5040,
      "type": "SCALAR"
    },
    {
      "bufferView": 2,
      "byteOffset": 21168,
      "componentType": 5126,
      "count": 2092,
      "max": [
        0.21299999952316284,
        0.23680000007152557,
        0.7781000137329102
      ],
      "min": [
        -0.21299999952316284,
        -0.2395000010728836,
        0.006899999920278788
      ],
      "type": "VEC3"
    },
    {
      "bufferView": 2,
      "byteOffset": 46272,
      "componentType": 5126,
      "count": 2092,
      "max": [
        1.0,
        1.0,
        1.0
      ],
      "min": [
        -1.0,
        -1.0,
        -1.0
      ],
      "type": "VEC3"
    },
    {
      "bufferView": 1,
      "byteOffset": 7056,
      "componentType": 5126,
      "count": 2092,
      "max": [
        0.9998999834060669,
        1.0
      ],
      "min": [
        -1.0,
        0.0
      ],
      "type": "VEC2"
    },
    {
      "bufferView": 0,
      "byteOffset": 20160,
      "componentType": 5125,
      "count": 11256,
      "type": "SCALAR"
    },
    {
      "bufferView": 2,
      "byteOffset": 71376,
      "componentType": 5126,
      "count": 650,
      "max": [
        0.21809999644756317,
        0.24220000207424164,
        0.4205000102519989
      ],
      "min": [
        -0.21809999644756317,
        -0.16660000383853912,
        -0.0005000000237487257
      ],
      "type": "VEC3"
    },
    {
      "bufferView": 2,
      "byteOffset": 79176,
      "componentType": 5126,
      "count": 650,
      "max": [
        1.0,
        0.9999997615814209,
        0.9995618462562561
      ],
      "min": [
        -1.0,
        -0.999779999256134,
        -0.9999395608901978
      ],
      "type": "VEC3"
    },
    {
      "bufferView": 1,
      "byteOffset": 23792,
      "componentType": 5126,
      "count": 650,
      "max": [
        -0.9269000291824341,
        0.8234999775886536
      ],
      "min": [
        -0.9269000291824341,
        0.8234999775886536
      ],
      "type": "VEC2"
    },
    {
      "bufferView": 0,
      "byteOffset": 65184,
      "componentType": 5125,
      "count": 3792,
      "type": "SCALAR"
    },
    {
      "bufferView": 2,
      "byteOffset": 86976,
      "componentType": 5126,
      "count": 2050,
      "max": [
        0.2029999941587448,
        0.20340000092983246,
        0.7789999842643738
      ],
      "min": [
        -0.2029999941587448,
        -0.24220000207424164,
        0.4041999876499176
      ],
      "type": "VEC3"
    },
    {
      "bufferView": 2,
      "byteOffset": 111576,
      "componentType": 5126,
      "count": 2050,
      "max": [
        0.9997196793556213,
        0.9997645020484924,
        0.9999507665634155
      ],
      "min": [
        -0.9997196793556213,
        -0.9997645020484924,
        -0.9999510049819946
      ],
      "type": "VEC3"
    },
    {
      "bufferView": 1,
      "byteOffset": 28992,
      "componentType": 5126,
      "count": 2050,
      "max": [
        1.0,
        1.0
      ],
      "min": [
        -1.0,
        0.0
      ],
      "type": "VEC2"
    },
    {
      "bufferView": 0,
      "byteOffset": 80352,
      "componentType": 5125,
      "count": 10200,
      "type": "SCALAR"
    }
  ],
  "asset": {
    "extras": {
      "author": "Formando Arquitectura (https://sketchfab.com/mbautistaa860)",
      "license": "CC-BY-4.0 (http://creativecommons.org/licenses/by/4.0/)",
      "source": "https://sketchfab.com/3d-models/silla-plegable-materiales-editables-f465e4bf898842d89dfdccae9f0ab34c",
      "title": "Silla Plegable (Materiales Editables)"
    },
    "generator": "Sketchfab-15.37.0",
    "version": "2.0"
  },
  "bufferViews": [
    {
      "buffer": 0,
      "byteLength": 121152,
      "name": "floatBufferViews",
      "target": 34963
    },
    {
      "buffer": 0,
      "byteLength": 45392,
      "byteOffset": 121152,
      "byteStride": 8,
      "name": "floatBufferViews",
      "target": 34962
    },
    {
      "buffer": 0,
      "byteLength": 136176,
      "byteOffset": 166544,
      "byteStride": 12,
      "name": "floatBufferViews",
      "target": 34962
    }
  ],
  "buffers": [
    {
      "byteLength": 302720,
      "uri": "scene.bin"
    }
  ],
  "materials": [
    {
      "doubleSided": true,
      "name": "Bolts",
      "pbrMetallicRoughness": {
        "baseColorFactor": [
          0.0,
          0.0,
          0.0,
          1.0
        ],
        "metallicFactor": 0.0,
        "roughnessFactor": 0.9401860487511512
      }
    },
    {
      "doubleSided": true,
      "name": "Kitchen_Chair_Pipes",
      "pbrMetallicRoughness": {
        "baseColorFactor": [
          0.0,
          0.0,
          0.0,
          1.0
        ],
        "metallicFactor": 0.0,
        "roughnessFactor": 0.08114005680779224
      }
    },
    {
      "doubleSided": true,
      "name": "Kitchen_Chair_Pips",
      "pbrMetallicRoughness": {
        "baseColorFactor": [
          0.0,
          0.0,
          0.0,
          1.0
        ],
        "metallicFactor": 0.0,
        "roughnessFactor": 0.9208088157901118
      }
    },
    {
      "doubleSided": true,
      "name": "Kitchen_Chair_Plastic",
      "pbrMetallicRoughness": {
        "baseColorFactor": [
          0.0023973259541357336,
          0.0023973259541357336,
          0.0023973259541357336,
          1.0
        ],
        "metallicFactor": 0.0,
        "roughnessFactor": 0.8765530040719244
      }
    }
  ],
  "meshes": [
    {
      "name": "Object_0",
      "primitives": [
        {
          "attributes": {
            "NORMAL": 1,
            "POSITION": 0,
            "TEXCOORD_0": 2
          },
          "indices": 3,
          "material": 0,
          "mode": 4
        }
      ]
    },
    {
      "name": "Object_1",
      "primitives": [
        {
          "attributes": {
            "NORMAL": 5,
            "POSITION": 4,
            "TEXCOORD_0": 6
          },
          "indices": 7,
          "material": 1,
          "mode": 4
        }
      ]
    },
    {
      "name": "Object_2",
      "primitives": [
        {
          "attributes": {
            "NORMAL": 9,
            "POSITION": 8,
            "TEXCOORD_0": 10
          },
          "indices": 11,
          "material": 2,
          "mode": 4
        }
      ]
    },
    {
      "name": "Object_3",
      "primitives": [
        {
          "attributes": {
            "NORMAL": 13,
            "POSITION": 12,
            "TEXCOORD_0": 14
          },
          "indices": 15,
          "material": 3,
          "mode": 4
        }
      ]
    }
  ],
  "nodes": [
    {
      "children": [
        1
      ],
      "matrix": [
        1.0,
        0.0,
        0.0,
        0.0,
        0.0,
        2.220446049250313e-16,
        -1.0,
        0.0,
        0.0,
        1.0,
        2.220446049250313e-16,
        0.0,
        0.0,
        0.0,
        0.0,
        1.0
      ],
      "name": "Sketchfab_model"
    },
    {
      "children": [
        2,
        3,
        4,
        5
      ],
      "name": "Silla Plegable.obj.cleaner.materialmerger.gles"
    },
    {
      "mesh": 0,
      "name": "Object_2"
    },
    {
      "mesh": 1,
      "name": "Object_3"
    },
    {
      "mesh": 2,
      "name": "Object_4"
    },
    {
      "mesh": 3,
      "name": "Object_5"
    }
  ],
  "scene": 0,
  "scenes": [
    {
      "name": "Sketchfab_Scene",
      "nodes": [
        0
      ]
    }
  ]
}
