{
  "accessors": [
    {
      "bufferView": 2,
      "componentType": 5126,
      "count": 1778,
      "max": [
        0.022644132375717163,
        0.0399823822081089,
        0.9602479934692383
      ],
      "min": [
        -0.8106836080551147,
        -0.055846597999334335,
        -0.6558219194412231
      ],
      "type": "VEC3"
    },
    {
      "bufferView": 2,
      "byteOffset": 21336,
      "componentType": 5126,
      "count": 1778,
      "max": [
        1.0,
        1.0,
        1.0
      ],
      "min": [
        -1.0,
        -1.0,
        -1.0
      ],
      "type": "VEC3"
    },
    {
      "bufferView": 3,
      "componentType": 5126,
      "count": 1778,
      "max": [
        1.0,
        1.0,
        1.0,
        1.0
      ],
      "min": [
        -1.0,
        -1.0,
        -1.0,
        -1.0
      ],
      "type": "VEC4"
    },
    {
      "bufferView": 1,
      "componentType": 5126,
      "count": 1778,
      "max": [
        0.9981993436813354,
        0.9798666834831238
      ],
      "min": [
        0.003543096361681819,
        0.014506087638437748
      ],
      "type": "VEC2"
    },
    {
      "bufferView": 1,
      "byteOffset": 14224,
      "componentType": 5126,
      "count": 1778,
      "max": [
        0.9981993436813354,
        0.9798666834831238
      ],
      "min": [
        0.003543096361681819,
        0.014506087638437748
      ],
      "type": "VEC2"
    },
    {
      "bufferView": 1,
      "byteOffset": 28448,
      "componentType": 5126,
      "count": 1778,
      "max": [
        0.9981993436813354,
        0.9798666834831238
      ],
      "min": [
        0.003543096361681819,
        0.014506087638437748
      ],
      "type": "VEC2"
    },
    {
      "bufferView": 0,
      "componentType": 5125,
      "count": 4398,
      "type": "SCALAR"
    }
  ],
  "asset": {
    "extras": {
      "author": "Kigha (https://sketchfab.com/Kigha)",
      "license": "CC-BY-4.0 (http://creativecommons.org/licenses/by/4.0/)",
      "source": "https://sketchfab.com/3d-models/medieval-arched-wooden-door-c31f74412c884fe0b3d92faadaec3356",
      "title": "Medieval Arched Wooden Door"
    },
    "generator": "Sketchfab-12.67.0",
    "version": "2.0"
  },
  "bufferViews": [
    {
      "buffer": 0,
      "byteLength": 17592,
      "name": "floatBufferViews",
      "target": 34963
    },
    {
      "buffer": 0,
      "byteLength": 42672,
      "byteOffset": 17592,
      "byteStride": 8,
      "name": "floatBufferViews",
      "target": 34962
    },
    {
      "buffer": 0,
      "byteLength": 42672,
      "byteOffset": 60264,
      "byteStride": 12,
      "name": "floatBufferViews",
      "target": 34962
    },
    {
      "buffer": 0,
      "byteLength": 28448,
      "byteOffset": 102936,
      "byteStride": 16,
      "name": "floatBufferViews",
      "target": 34962
    }
  ],
  "buffers": [
    {
      "byteLength": 131384,
      "uri": "scene.bin"
    }
  ],
  "images": [
    {
      "uri": "textures/Door_Medieval_baseColor.png"
    },
    {
      "uri": "textures/Door_Medieval_metallicRoughness.png"
    },
    {
      "uri": "textures/Door_Medieval_normal.png"
    }
  ],
  "materials": [
    {
      "doubleSided": true,
      "name": "Door_Medieval",
      "normalTexture": {
        "index": 2
      },
      "occlusionTexture": {
        "index": 1
      },
      "pbrMetallicRoughness": {
        "baseColorTexture": {
          "index": 0
        },
        "metallicRoughnessTexture": {
          "index": 1
        }
      }
    }
  ],
  "meshes": [
    {
      "name": "Door_Medieval_Door_Medieval_0",
      "primitives": [
        {
          "attributes": {
            "NORMAL": 1,
            "POSITION": 0,
            "TANGENT": 2,
            "TEXCOORD_0": 3,
            "TEXCOORD_1": 4,
            "TEXCOORD_2": 5
          },
          "indices": 6,
          "material": 0,
          "mode": 4
        }
      ]
    }
  ],
  "nodes": [
    {
      "children": [
        1
      ],
      "matrix": [
        1.0,
        0.0,
        0.0,
        0.0,
        0.0,
        2.220446049250313e-16,
        -1.0,
        0.0,
        0.0,
        1.0,
        2.220446049250313e-16,
        0.0,
        0.0,
        0.0,
        0.0,
        1.0
      ],
      "name": "Sketchfab_model"
    },
    {
      "children": [
        2
      ],
      "matrix": [
        1.0,
        0.0,
        0.0,
        0.0,
        0.0,
        0.0,
        1.0,
        0.0,
        0.0,
        -1.0,
        0.0,
        0.0,
        0.0,
        0.0,
        0.0,
        1.0
      ],
      "name": "Medival_Door.fbx"
    },
    {
      "children": [
        3
      ],
      "name": "RootNode"
    },
    {
      "children": [
        4
      ],
      "matrix": [
        100.0,
        0.0,
        0.0,
        0.0,
        0.0,
        -1.629206793918314e-05,
        -99.99999999999868,
        0.0,
        0.0,
        99.99999999999868,
        -1.629206793918314e-05,
        0.0,
        41.48460388183594,
        65.58219146728516,
        0.04977651312947273,
        1.0
      ],
      "name": "Door_Medieval"
    },
    {
      "mesh": 0,
      "name": "Door_Medieval_Door_Medieval_0"
    }
  ],
  "samplers": [
    {
      "magFilter": 9729,
      "minFilter": 9987,
      "wrapS": 10497,
      "wrapT": 10497
    }
  ],
  "scene": 0,
  "scenes": [
    {
      "name": "Sketchfab_Scene",
      "nodes": [
        0
      ]
    }
  ],
  "textures": [
    {
      "sampler": 0,
      "source": 0
    },
    {
      "sampler": 0,
      "source": 1
    },
    {
      "sampler": 0,
      "source": 2
    }
  ]
}
